<svg xmlns="http://www.w3.org/2000/svg" version="1.1" xmlns:xlink="http://www.w3.org/1999/xlink" xmlns:svgjs="http://svgjs.dev/svgjs" width="1080" height="720" preserveAspectRatio="none" viewBox="0 0 1080 720"><g mask="url(&quot;#SvgjsMask1013&quot;)" fill="none"><rect width="1080" height="720" x="0" y="0" fill="rgba(104, 63, 149, 1)"></rect><path d="M -687.3689710375729,434 C -615.37,410.4 -471.37,325.4 -327.368971037573,316 C -183.37,306.6 -111.37,418 32.631028962427024,387 C 176.63,356 248.63,144.4 392.631028962427,161 C 536.63,177.6 615.16,434.4 752.6310289624271,470 C 890.1,505.6 1014.53,365.2 1080,339" stroke="rgba(255, 255, 255, 0.71)" stroke-width="2"></path><path d="M -611.2774026293775,398 C -539.28,376.4 -395.28,288.6 -251.2774026293775,290 C -107.28,291.4 -35.28,396 108.72259737062251,405 C 252.72,414 324.72,339.8 468.7225973706225,335 C 612.72,330.2 706.47,399.6 828.7225973706225,381 C 950.98,362.4 1029.74,269.8 1080,242" stroke="rgba(255, 255, 255, 0.71)" stroke-width="2"></path><path d="M -317.8256438702201,476 C -245.83,427 -101.83,221.2 42.17435612977986,231 C 186.17,240.8 258.17,543.6 402.1743561297799,525 C 546.17,506.4 618.17,126.8 762.1743561297799,138 C 906.17,149.2 1058.61,588.6 1122.1743561297799,581 C 1185.74,573.4 1088.43,196.2 1080,100" stroke="rgba(255, 255, 255, 0.71)" stroke-width="2"></path><path d="M -26.935320593625136,290 C 45.06,342 189.06,576.4 333.06467940637486,550 C 477.06,523.6 549.06,166.4 693.0646794063748,158 C 837.06,149.6 909.06,476.2 1053.0646794063748,508 C 1197.06,539.8 1407.68,341.4 1413.0646794063748,317 C 1418.45,292.6 1146.61,372.2 1080,386" stroke="rgba(255, 255, 255, 0.71)" stroke-width="2"></path></g><defs><mask id="SvgjsMask1013"><rect width="1080" height="720" fill="#ffffff"></rect></mask></defs></svg>